<svg xmlns="http://www.w3.org/2000/svg" xmlns:xlink="http://www.w3.org/1999/xlink" width="1270.13" height="463.62" viewBox="0 0 1270.13 463.62">
  <defs>
    <clipPath id="clip-Logo">
      <rect width="1270.13" height="463.62"/>
    </clipPath>
  </defs>
  <g id="Logo" clip-path="url(#clip-Logo)">
    <g id="Logo-2" data-name="Logo" transform="translate(0 0)">
      <g id="g3">
        <path id="path15" d="M118.908,12.573C102.187,28.772,90.808-4.6,118.908,12.573Z" transform="translate(367.495 31.414)" fill="#39a08f"/>
        <path id="path27" d="M102.356,9.374C125.754,10.6,100.111,41.856,102.356,9.374Z" transform="translate(369.234 39.999)" fill="#39a08f"/>
        <path id="path31" d="M98.2,11.7C104.9,4.667,94.207,22.963,98.2,11.7Z" transform="translate(346.461 43.057)" fill="#39a08f"/>
        <path id="path33" d="M104.64,11.546C120.014,6.6,123.942,16.068,104.64,11.546Z" transform="translate(380.416 43.208)" fill="#39a08f"/>
        <path id="path43" d="M110.4,12.224C113.149,8.986,110.681,21.543,110.4,12.224Z" transform="translate(406.976 50.61)" fill="#39a08f"/>
        <path id="path55" d="M78.892,13.951C88.987,13.44,76.985,22.345,78.892,13.951Z" transform="translate(260.727 61.003)" fill="#39a08f"/>
        <path id="path63" d="M110.517,14.767C118.765,13.381,109.114,23.032,110.517,14.767Z" transform="translate(406.859 64.226)" fill="#39a08f"/>
        <path id="path65" d="M101.76,15.171C128.861,14.177,111.186,29.849,101.76,15.171Z" transform="translate(367.137 66.516)" fill="#39a08f"/>
        <path id="path75" d="M109.066,16.573C120.232,24.3,89.119,21.544,109.066,16.573Z" transform="translate(369.257 73.193)" fill="#39a08f"/>
        <path id="path77" d="M110.8,17.4C114.171,12.856,109.626,32.045,110.8,17.4Z" transform="translate(407.918 73.712)" fill="#39a08f"/>
        <path id="path79" d="M83.28,18.086C91.6,13.861,86.607,31.462,83.28,18.086Z" transform="translate(281.926 77.067)" fill="#39a08f"/>
        <path id="path93" d="M108.906,20.75C99.648,27.023,99.648,13.6,108.906,20.75Z" transform="translate(368.07 82.483)" fill="#39a08f"/>
        <path id="path95" d="M110.757,18.607C119,17.221,109.354,26.861,110.757,18.607Z" transform="translate(407.966 81.932)" fill="#39a08f"/>
        <path id="path107" d="M41.4,20.2C37.949,27.2,33.909,19.662,41.4,20.2Z" transform="translate(69.292 89.77)" fill="#39a08f"/>
        <path id="path125" d="M38.311,25.693C38.227,37.964,19.543,29.884,38.311,25.693Z" transform="translate(36.026 115.245)" fill="#39a08f"/>
        <path id="path129" d="M46.718,28.794C26.451,44.69,37.937,22.543,46.718,28.794Z" transform="translate(61.28 124.27)" fill="#39a08f"/>
        <path id="path137" d="M53.353,29.533C50.419,35.52,45.638,30.683,53.353,29.533Z" transform="translate(124.67 132.952)" fill="#39a08f"/>
        <path id="path155" d="M51.98,32.653C55.392,38.432,42.885,39.487,51.98,32.653Z" transform="translate(122.003 147.338)" fill="#39a08f"/>
        <path id="path161" d="M29.93,35.293C40.293,40.949,23.9,41.308,29.93,35.293Z" transform="translate(29.589 159.511)" fill="#39a08f"/>
        <path id="path163" d="M22.561,44.923C26.281,35.048,41.958,32.944,22.561,44.923Z" transform="translate(1.951 166.04)" fill="#39a08f"/>
        <path id="path165" d="M40.868,36.493C31.6,47.58,21.892,40.471,40.868,36.493Z" transform="translate(36.158 165.044)" fill="#39a08f"/>
        <path id="path173" d="M47.274,43.7C42.1,50.447,37.954,43.484,47.274,43.7Z" transform="translate(90.35 198.239)" fill="#39a08f"/>
        <path id="path177" d="M41.64,44.436C38.184,51.444,34.155,43.9,41.64,44.436Z" transform="translate(70.403 201.54)" fill="#39a08f"/>
        <path id="path179" d="M35.761,46.209C41.737,41.939,48.431,47.741,35.761,46.209Z" transform="translate(62.816 202.466)" fill="#39a08f"/>
        <path id="path181" d="M34.08,46.469C39.119,42.059,44.55,48.214,34.08,46.469Z" transform="translate(55.065 203.547)" fill="#39a08f"/>
        <path id="path183" d="M70.354,48.165C77.059,41.18,66.37,59.4,70.354,48.165Z" transform="translate(218.093 211.277)" fill="#39a08f"/>
        <path id="path187" d="M62.4,52.423C67.557,46.9,69.184,58.174,62.4,52.423Z" transform="translate(185.648 231.259)" fill="#39a08f"/>
        <path id="path191" d="M74.372,52.414C72.779,65.561,66.107,50.995,74.372,52.414Z" transform="translate(222.161 238.001)" fill="#39a08f"/>
        <path id="path199" d="M39.12,57.133C49.8,68,52.2,109.113,41.813,66.548,40.371,63.479,42.026,60.741,39.12,57.133Z" transform="translate(78.305 260.215)" fill="#39a08f"/>
        <path id="path201" d="M24.49,57.133C29.444,64.208,19.429,71.284,24.49,57.133Z" transform="translate(4.057 260.215)" fill="#39a08f"/>
        <path id="path203" d="M25.633,57.133C32.282,60.679,22.856,70.364,25.633,57.133Z" transform="translate(13.686 260.215)" fill="#39a08f"/>
        <path id="path205" d="M29.615,57.613C31.254,72.852,19.386,82.363,29.615,57.613Z" transform="translate(15.097 262.428)" fill="#39a08f"/>
        <path id="path209" d="M24.867,60.31C31.992,58.6,20.406,89.01,24.867,60.31Z" transform="translate(7.72 274.544)" fill="#39a08f"/>
        <path id="path211" d="M81.5,60.87C37.94,79.358,42.109,58.67,81.5,60.87Z" transform="translate(130.191 276.678)" fill="#39a08f"/>
        <path id="path215" d="M52.175,88.678C36.739,71.312,33.878,35.76,52.175,88.678Z" transform="translate(80.068 277.149)" fill="#39a08f"/>
        <path id="path217" d="M55.92,63C61.9,58.757,68.606,64.525,55.92,63Z" transform="translate(155.769 279.935)" fill="#39a08f"/>
        <path id="path221" d="M26.1,62.688C30.423,59.72,24.739,77.855,26.1,62.688Z" transform="translate(17.263 284.285)" fill="#39a08f"/>
        <path id="path229" d="M22.718,64.093C30.455,70.422,15.721,75.887,22.718,64.093Z" transform="translate(-6.291 292.307)" fill="#39a08f"/>
        <path id="path231" d="M25.377,65.325C29.714,62.379,24.019,80.48,25.377,65.325Z" transform="translate(13.943 296.462)" fill="#39a08f"/>
        <path id="path241" d="M23.54,66.253C33.566,80.005,11.207,96.025,23.54,66.253Z" transform="translate(-11.153 302.267)" fill="#39a08f"/>
        <path id="path243" d="M42.241,68.984C51.028,63.614,57.722,74.163,42.241,68.984Z" transform="translate(92.695 307.616)" fill="#39a08f"/>
        <path id="path247" d="M43.68,70.376C55.7,65.4,73.631,72.53,43.68,70.376Z" transform="translate(99.331 312.957)" fill="#39a08f"/>
        <path id="path249" d="M24.72,69.826C27.453,66.583,24.984,79.14,24.72,69.826Z" transform="translate(11.906 316.206)" fill="#39a08f"/>
        <path id="path251" d="M27.2,69.625C32.271,69.042,25.128,85.8,27.2,69.625Z" transform="translate(21.548 317.748)" fill="#39a08f"/>
        <path id="path257" d="M44.161,71.773C52.645,79.292,46.467,85.694,44.161,71.773Z" transform="translate(101.549 327.72)" fill="#39a08f"/>
        <path id="path259" d="M26.88,72.945C29.613,69.7,27.144,82.265,26.88,72.945Z" transform="translate(21.866 330.588)" fill="#39a08f"/>
        <path id="path261" d="M19.395,74.173C28.052,87.392,17.481,89.614,19.395,74.173Z" transform="translate(-13.741 338.786)" fill="#39a08f"/>
        <path id="path2001" d="M541.922,58.637c1.19,4-7.593,17.986-6.751,27.665-2.637,27.9,12.007,20.547,5.387,30.945-6,26.714-51.565-20.385-76.259-10.543-33.672-23.157-84.395-5.325-79.923,44.243-7.255,22.074-10.33,45.948-20.177,65.957-8.742,34.115-39.844,50.235-37.414,83.548-24.761,15.638-43.71,41.841-66.193,62.349-5.308,14.235-22.814,10.8-17.579,26.45,0,19.105-181.745,89.17-175.057,68.533,10.616-17.332,19.8-45.432,27.971-68.23,8.54-34.777,25.025-68.723,36.651-102.76,3.563-17.691,36.4-30.35,35.007-41.74-24.167,21.754-63.191,13.921-89.647,31.377-11.89,21.894-24.47,30.5-27.5,69.621-6.722-23.779-4.135-1.117-9.426,8.074,4.983-2.261-6.52,42.615,1.352,17.506,10.975,22.236-14.392,13.579-1.2,22.062,1.913,7.4,11.435.741-.673,9.426-8.119-9.258,2.272,20.929-3.524,18.331,3.215,14.959,20.553,56.031.264,27.4-4.6-4.64,6.705,25.6-5.645,11.626-5.611-18.808-8.007-36.937-6.3-62.888-5.656-13.6,8.54-40.1.6-37.47,10.846-16.182,13.057-39.131,25.659-58.826,6.116-17.2,45.617-50.723,31.713-59.448-29.935,7.956-36.7-30.35-58.629,6.363-10.767-13.253,28.509-42.38,3.406-66.294C4.978,138.4,51.953,114.317,83.79,97.282c20.093-11.02,36.5-12.086,45.724,2.132,10.975,7.277,15.195,2.772,15.195,17.725,12.092-8.731,1.981,9.825,15.043-2.632-7.6,18.421,5.656-5.65,2.469,14.74-16.356,12.658-55.723,28.554-12.12,14.83,15.1-5.936,46.313-28.285,51.963-19.268,2.48,6.267-37.044,17.994-26.7,25.53,7.507-3.468,8.759-12.1,5.706,3.3,9.746-17.916-3.759,16.446,14.533-5.117-12.636,17.164-25.771,5.482-27.544,18.729-21.288,4.494-58.41,2.188-45.051,10,27.129.337-2.143,21.557-24.06,28.913,2.244-2.609,29.379,20.783,10.24,17.955-18.617-8.731-21.513,5.3-14.145,7.76-9.191,5.566,12.877,10.695-1.683,20.519-1.184,8.484,18.1-9.152,18.993,3.26,5.734,4.079,72.825-11.357,22.938-17.209,30.411-5.229,20.469,15.817,47.127-2.693,22.461-20.677-2.637-30.619-13.466-35.007,25.581-8.719-1.947-28.975,22.719-36.853,7.844-28.521,9.617-21.254,30.838-41.016-22.046,20.1-25.912,36.976-29.323,41.527,26.175-5.37-16.412,21.49.926,14.746-6.913,17.691,16.693-3.254-4.96,17.579-8.669,39.316,37.47-28.515,8.725,9.5-8.849,9.488,1.1,8.747,4.5,13.118,19.24-22.7-16.659,26.933-24.38,31.528-26.389,14.656-37.15,42.228-45.387,71.063-15.245,34.575-28.526,69.122-37.7,106.373,6.211,6.133,149.32-48.9,133.384-39.507-15.7,2.7,1.279,30.709-9.471,4.483,1.251,7.176-59.123,10.532-31.837.522-16.4-3.378,24.643-13.236-15.694-14.9,27.96.213-43.373-14.987,4.438-4.483,35.91,3.922-46.981-13.713,9.909-8.439,48.008-4.534,6.273,6.52-13.949,1.706,25.014,10.128,85.281-10.319,30.978,8.074,17.994,8.018,57.086-29.25,47.806-32.319,6.593-3.4-.32-10.925-11.446-9.426-24.312-12.355,26.781-9.87,6.733-13.461,22.73,1.812-11.054-33.857,16.154-13.466,14.022,13.18,49.624-5.7,12.12-1.352,24.425-13.438-36.7-.578,1.812-10.824,24.986,6.61,56.531-4.416,8.007-7.738-19.835-3.613,29.963-.606-8.467-8.366-12.316-14.2-17.994-24.161-7.081-21.322-10.1-27.236-18.2-12.03-4.629-41.213,24.043-21.782-39.322-1.257-20.615,28.874,2.143,31.629-20.968,2.721-6.5-8.3-3.911-16.8,5.218-42.475,40.674-32.8,7.85-20.6,22.09-34.485,36.135-50.246,14.572-18.241,38.5-41.948,11.834-9.64-9.971,18.881-29.34,32.74-36.3,47.862-6.761,25.681-27.331,32.51-18.9,57.17,12.866,32.207,33.576,23.813,44.433,2.693,2.6,12.176,10.369-11.564,12.114-4.051.168-16.855,9.859,17.3,4.04-13.455,12.243-5.353,11.946-12.238,14.813-13.466,1.291-22.4,3.888,7.2,5.039-19.481,2.963,5.628,1.885-13.517,6.155-5.976-4.68-28.964,5.847,2.66.915-27.051,6.049,6.946,4.736-13.158,13.466-21.546-2.53-16.928,10.375-25.1,14.572-35.708-12.552-21.838,9.769-3,21.771-22.191,5.28,9.365,5.544-.915,16.148-5.387C429.7,81.8,455.9,94.678,457.111,80.9c15.43,12.361-40.64,9.432-2.749,19.818,35.024,7.945,28.964-9.2,26.54-15.593,2.985-2.985,7.418-25.317-.965-25.508,9.561-14.545-4.085-27.267,3.726-29.173-4.433-28.033-48.266.72-66.95,7.352-38.963,14.9,18.2-5.5,25.569-20.194C473.473,31.8,525.184-14.028,533.825,5.5,518.675,63.852,533.338,52.868,541.922,58.637ZM57.171,301.763C49.383,322.765,62.143,306.471,57.171,301.763ZM508.295,20.316c-8.585,2.615,19.077-15.27,18.067-10.686-.617-26.01-67.461,31.8-19.414,22.8,12.064-1.347-23.678-1.373,10.436-13.609C529.5,7.46,507.565,23.808,508.295,20.316Zm-16.16,21.552C495.782,59.963,522.266,34.856,492.135,41.868Zm1.347,25.58c16.328-3.63-.28-5.936,8.978-12.1C501.337,48.991,486.749,45.548,493.482,67.448Zm26.933-10.773C515.14,47.959,490.284,59.02,520.414,56.675Zm-9.426,20.2C507.509,62.589,472.817,80.8,510.988,76.875ZM492.135,87.648C522.883,94.706,492.64,73.946,492.135,87.648Zm0,8.08C512.5,96.872,498.139,85.9,492.135,95.727Zm0,6.733C499.991,110.827,496.568,96.911,492.135,102.461ZM128.543,113.234C137.891,111.893,129.463,106.82,128.543,113.234ZM82.757,130.74C91.875,129.932,91.651,121.145,82.757,130.74Zm6.733,14.819C86.326,156.22,104.59,134.909,89.491,145.559Zm29.626,12.114C140.074,155.816,124.9,146.715,119.117,157.673Zm-20.205,8.08c-17.209,15-33.082,20.951-41.734,40.388-32.314,36.079,35.518-35.2,37.7-29.609C116.906,161.191,116.738,156.983,98.912,165.753ZM54.473,202.112C40.512,212.846,50.4,217.974,54.473,202.112Zm61.951-24.239C117,182.849,113.764,168.306,116.423,177.872ZM84.1,199.419C82.466,187.3,76.423,202.841,84.1,199.419Zm1.352,1.347C74.644,210.4,104.09,200.894,85.451,200.765Zm2.688,6.733C105.852,204.844,99.31,196.484,88.138,207.5ZM154.129,245.2C165.407,243.925,156.867,238.6,154.129,245.2Zm111.765,16.16C265.042,256.544,258.8,260.107,265.895,261.364Zm43.1,1.347C315.619,262.649,310.625,253.4,308.993,262.711Zm8.074,21.546C321.937,306.611,324.855,264.787,317.067,284.257Zm-1.341,12.12C326.134,286.669,308.824,291.77,315.726,296.376ZM50.433,327.349C55.763,313.709,44.872,317.322,50.433,327.349ZM36.966,365.055C46.533,360.639,34.183,351.824,36.966,365.055Zm-4.04,8.08C21.048,417.8,47.6,357.693,32.926,373.135Zm-2.693,21.546C22.209,404.764,39.082,395.685,30.233,394.681Zm-4.04,13.466C36.8,413.837,26.665,395,26.193,408.147Zm4.04,16.16C30.862,407.552,22.03,412.793,30.233,424.307Zm5.392,14.813C26.575,410.268,28.5,444.5,35.625,439.12Z" transform="translate(-21.892 -0.575)" fill="#31c397"/>
        <path id="path2005" d="M39.231,147.96C13.4,152.2,24.631,94.913,28.621,67.016c4.511-6.829-4.41,40.646.314,55.105C16.9,166.56,72.274,110.6,39.231,147.96Z" transform="translate(2.782 302.705)" fill="#39a08f"/>
        <path id="path2021" d="M24.613,63.286C22.015,50.892,31.778,51.829,24.613,63.286Z" transform="translate(9.326 247.328)" fill="#39a08f"/>
        <path id="path2023" d="M129.93,13.174c-21.939,14.962-18.516,16.02-7.463,17.538C78.034,41.761,115.229-8.026,140.7,2.4c-8.136,8.969-13.747,6.767-24.745,17.629,4.32-2.919,10.829-2.3,13.971-6.856Z" transform="translate(367.246 1.181)" fill="#39a08f"/>
        <path id="path2043" d="M91.276,34.558c9.948-5.952,51.06-2.727,22.1-8.846C69.96,24.536,104.7,11,118.175,11.671c8.405,8.469-16.889-15.94,10.627-.429-14.4,9.491-15.554,7.888,3,21.459,5.746,16.367-24.514,18.281-37.5,21.737-16.4-17.961,60.374-7.457,19.307-20.211-7.272-.224-25.6,5.611-22.337.331Zm35.013-1.347C132.9,33.161,127.944,23.893,126.289,33.211Z" transform="translate(317.022 24.236)" fill="#39a08f"/>
        <path id="path2069" d="M89.122,9.854C85.368,21.5,75.2,14.55,89.122,9.854Z" transform="translate(276.084 42.212)" fill="#39a08f"/>
        <path id="path2073" d="M89.119,11.293C83.492,27.335,71.7,24.569,89.119,11.293Z" transform="translate(266.666 48.847)" fill="#39a08f"/>
        <path id="path2079" d="M102.574,20.95C97.355-.326,144.937,28.694,102.574,20.95Z" transform="translate(369.016 56.702)" fill="#39a08f"/>
        <path id="path2095" d="M83.041,16.929C84.7,10.42,83.978,31.052,83.041,16.929Z" transform="translate(280.824 68.803)" fill="#39a08f"/>
        <path id="path2107" d="M81.081,17.293C86.215,19.9,69.146,32.336,81.081,17.293Z" transform="translate(251.811 76.513)" fill="#39a08f"/>
        <path id="path2123" d="M47.976,19.7C42.707,31.881,48.133,19.206,47.976,19.7Z" transform="translate(108.501 87.568)" fill="#39a08f"/>
        <path id="path2137" d="M75.775,20.894C74.58,32.346,75.9,23.935,75.775,20.894Z" transform="translate(244.997 93.117)" fill="#39a08f"/>
        <path id="path2151" d="M35.491,23.053C32.623,29.343,22.675,26.335,35.491,23.053Z" transform="translate(32.114 103.072)" fill="#39a08f"/>
        <path id="path2171" d="M72.986,33.974c27.152-11.127,12.024-1.464-5.392,13.472-1.925-7.67-71.4,70.536-33.66,21.529C43.955,55.414,61.6,45.37,72.986,33.974Z" transform="translate(2.693 131.204)" fill="#39a08f"/>
        <path id="path2185" d="M34.561,31.9C45.306,29.715,35.818,42.581,34.561,31.9Z" transform="translate(57.283 142.701)" fill="#39a08f"/>
        <path id="path2199" d="M55.62,36.587C58.774,33.545,47.187,49,55.62,36.587Z" transform="translate(139.915 163.604)" fill="#39a08f"/>
        <path id="path2201" d="M36.13,36.73C34.879,42.565,21.306,34.906,36.13,36.73Z" transform="translate(32.815 164.807)" fill="#39a08f"/>
        <path id="path2207" d="M52.985,37.693C58.343,39.7,44.439,48.8,52.985,37.693Z" transform="translate(129.084 170.577)" fill="#39a08f"/>
        <path id="path2213" d="M38.4,45.053C27.991,38.774,56.843,44.907,38.4,45.053Z" transform="translate(64.212 191.497)" fill="#39a08f"/>
        <path id="path2215" d="M61.024,43.693c7.412,8.231,7.047,27.55-1.493,5.92C54.537,48.44,66.96,47.581,61.024,43.693Z" transform="translate(166.825 198.243)" fill="#39a08f"/>
        <path id="path2217" d="M71.515,44.653C59.7,60.987,31.206,81.691,64,50Z" transform="translate(122.668 202.67)" fill="#39a08f"/>
        <path id="path2219" d="M61.813,48.031C58.042,43.1,70.229,52.408,61.813,48.031Z" transform="translate(179.502 211.411)" fill="#39a08f"/>
        <path id="path2221" d="M58.859,48.493C54.213,62.919,29.62,71.476,58.859,48.493Z" transform="translate(104.351 220.376)" fill="#39a08f"/>
        <path id="path2223" d="M55.44,49.693C74.714,69.545,61.567,68.6,55.44,49.693Z" transform="translate(153.556 225.909)" fill="#39a08f"/>
        <path id="path2225" d="M73.7,50.173C77.574,59.869,66.128,66.624,73.7,50.173Z" transform="translate(225.524 228.122)" fill="#39a08f"/>
        <path id="path2239" d="M28.868,54.733C32.072,64.631,22.079,74.989,28.868,54.733Z" transform="translate(19.878 249.149)" fill="#39a08f"/>
        <path id="path2249" d="M58.83,58.3C53.3,53.255,69.227,61.273,58.83,58.3Z" transform="translate(163.638 257.708)" fill="#39a08f"/>
        <path id="path2269" d="M29.738,61.213C30.007,80.779,17.18,92.556,29.738,61.213Z" transform="translate(9.582 279.028)" fill="#39a08f"/>
        <path id="path2295" d="M42.72,69.854C53.97,79.948,49.313,84.723,42.72,69.854Z" transform="translate(94.904 318.871)" fill="#39a08f"/>
        <path id="path2297" d="M20.441,70.093C30.131,81.012,15,82.28,20.441,70.093Z" transform="translate(-13.435 319.973)" fill="#39a08f"/>
        <path id="path2303" d="M41.761,71.293C49.151,74.121,47.462,84.3,41.761,71.293Z" transform="translate(90.482 325.506)" fill="#39a08f"/>
        <path id="path2305" d="M50.88,71.533C55.212,74.142,54.825,81.751,50.88,71.533Z" transform="translate(132.53 326.613)" fill="#39a08f"/>
        <path id="path2307" d="M49.68,71.773C58.214,77.328,53.282,83.954,49.68,71.773Z" transform="translate(126.997 327.72)" fill="#39a08f"/>
        <path id="path2311" d="M19.674,72.013C28.309,82.388,16.431,83.8,19.674,72.013Z" transform="translate(-14.02 328.826)" fill="#39a08f"/>
        <path id="path2313" d="M47.28,72.761c16.788,4.393,20.4,23.246,2.5-.034Z" transform="translate(115.93 332.119)" fill="#39a08f"/>
        <path id="path2317" d="M21.6,73.606C24.922,69.437,25.387,94.484,21.6,73.606Z" transform="translate(-2.48 333.967)" fill="#39a08f"/>
        <path id="path2323" d="M43.2,72.973C61.127,94.368,58.568,103.979,43.2,72.973Z" transform="translate(97.117 333.253)" fill="#39a08f"/>
        <path id="path2325" d="M50.88,73.453C60.335,86.482,53.54,76.533,50.88,73.453Z" transform="translate(132.53 335.466)" fill="#39a08f"/>
        <path id="path2329" d="M46.561,73.693C54.747,79.349,50.13,79.8,46.561,73.693Z" transform="translate(112.615 336.573)" fill="#39a08f"/>
        <path id="path2331" d="M43.087,75.884C41.729,69.92,49.977,88.683,43.087,75.884Z" transform="translate(95.884 341.115)" fill="#39a08f"/>
        <path id="path2337" d="M49.26,76.19C43.756,70.4,64.651,92.551,49.26,76.19Z" transform="translate(120.683 343.508)" fill="#39a08f"/>
        <path id="path2341" d="M26.5,91.815C13.014,75.1,21.986,67.946,26.5,91.815Z" transform="translate(-12.758 349.423)" fill="#39a08f"/>
      </g>
      <text id="_" data-name="𝓐𝓡𝓣𝓒𝓐" transform="translate(792.127 328.338)" fill="#31c397" font-size="234" font-family="SegoeUISymbol, Segoe UI Symbol"><tspan x="-477.769" y="0">𝓐𝓡𝓣𝓒𝓐</tspan></text>
    </g>
  </g>
</svg>
