<svg id="Group_25" data-name="Group 25" xmlns="http://www.w3.org/2000/svg" width="31.508" height="24" viewBox="0 0 31.508 24">
  <path id="Path_1197" data-name="Path 1197" d="M28.738,61H2.769A2.774,2.774,0,0,0,0,63.769V82.231A2.774,2.774,0,0,0,2.769,85H28.738a2.774,2.774,0,0,0,2.769-2.769V63.769A2.774,2.774,0,0,0,28.738,61Zm-.382,1.846L15.813,75.39,3.161,62.846Zm-26.51,19V64.143l8.891,8.815Zm1.305,1.305,8.9-8.9,3.117,3.09a.923.923,0,0,0,1.3,0l3.04-3.04,8.848,8.848Zm26.51-1.305L20.813,73l8.848-8.848Z" transform="translate(0 -61)" fill="#474b63"/>
</svg>
