<svg xmlns="http://www.w3.org/2000/svg" xmlns:xlink="http://www.w3.org/1999/xlink" width="950" height="550" viewBox="0 0 950 550">
  <defs>
    <filter id="Rectangle_593" x="41" y="24" width="268" height="168" filterUnits="userSpaceOnUse">
      <feOffset dy="3" input="SourceAlpha"/>
      <feGaussianBlur stdDeviation="3" result="blur"/>
      <feFlood flood-opacity="0.161"/>
      <feComposite operator="in" in2="blur"/>
      <feComposite in="SourceGraphic"/>
    </filter>
    <filter id="Rectangle_595" x="641" y="24" width="268" height="168" filterUnits="userSpaceOnUse">
      <feOffset dy="3" input="SourceAlpha"/>
      <feGaussianBlur stdDeviation="3" result="blur-2"/>
      <feFlood flood-opacity="0.161"/>
      <feComposite operator="in" in2="blur-2"/>
      <feComposite in="SourceGraphic"/>
    </filter>
    <filter id="Rectangle_594" x="341" y="24" width="268" height="168" filterUnits="userSpaceOnUse">
      <feOffset dy="3" input="SourceAlpha"/>
      <feGaussianBlur stdDeviation="3" result="blur-3"/>
      <feFlood flood-opacity="0.161"/>
      <feComposite operator="in" in2="blur-3"/>
      <feComposite in="SourceGraphic"/>
    </filter>
    <filter id="Rectangle_597" x="491" y="283" width="268" height="168" filterUnits="userSpaceOnUse">
      <feOffset dy="3" input="SourceAlpha"/>
      <feGaussianBlur stdDeviation="3" result="blur-4"/>
      <feFlood flood-opacity="0.161"/>
      <feComposite operator="in" in2="blur-4"/>
      <feComposite in="SourceGraphic"/>
    </filter>
    <filter id="Rectangle_596" x="191" y="283" width="268" height="168" filterUnits="userSpaceOnUse">
      <feOffset dy="3" input="SourceAlpha"/>
      <feGaussianBlur stdDeviation="3" result="blur-5"/>
      <feFlood flood-opacity="0.161"/>
      <feComposite operator="in" in2="blur-5"/>
      <feComposite in="SourceGraphic"/>
    </filter>
    <clipPath id="clip-Pembayaran">
      <rect width="950" height="550"/>
    </clipPath>
  </defs>
  <g id="Pembayaran" clip-path="url(#clip-Pembayaran)">
    <rect width="950" height="550" fill="#fff"/>
    <g id="Group_162" data-name="Group 162" transform="translate(-36 -6)">
      <g transform="matrix(1, 0, 0, 1, 36, 6)" filter="url(#Rectangle_593)">
        <g id="Rectangle_593-2" data-name="Rectangle 593" transform="translate(50 30)" fill="#fff" stroke="rgba(71,75,99,0.2)" stroke-width="1">
          <rect width="250" height="150" rx="12" stroke="none"/>
          <rect x="0.5" y="0.5" width="249" height="149" rx="11.5" fill="none"/>
        </g>
      </g>
      <path id="Logo_ovo_purple" d="M52.985,50.6a31.348,31.348,0,0,1-22,8.624A31.473,31.473,0,0,1,8.863,50.6a29.2,29.2,0,0,1,0-41.922A31.373,31.373,0,0,1,31.011,0a31.348,31.348,0,0,1,22,8.624,29.173,29.173,0,0,1,0,41.922m-22-40.9a19.324,19.324,0,0,0-19.5,20,19.449,19.449,0,0,0,38.9,0,19.324,19.324,0,0,0-19.4-20m94.994-2.675L102.232,60l-1.35-.25c-6.8-1.225-8.174-2.925-11.349-9.824L71.709,11.1h-6.7V1.677H90.333V11.1h-6.05L98.607,43.225l13.9-32.123h-7.5V1.677h21ZM183.5,50.6a32.5,32.5,0,0,1-44.1,0,29.2,29.2,0,0,1,0-41.922,32.5,32.5,0,0,1,44.1,0,29.123,29.123,0,0,1,0,41.922M161.628,9.652a19.349,19.349,0,0,0-19.524,20,19.449,19.449,0,0,0,38.9,0,19.3,19.3,0,0,0-19.374-20" transform="translate(114.8 81.001)" fill="#4b2489" fill-rule="evenodd"/>
    </g>
    <g id="Group_164" data-name="Group 164" transform="translate(219 -81)">
      <g transform="matrix(1, 0, 0, 1, -219, 81)" filter="url(#Rectangle_595)">
        <g id="Rectangle_595-2" data-name="Rectangle 595" transform="translate(650 30)" fill="#fff" stroke="rgba(71,75,99,0.2)" stroke-width="1">
          <rect width="250" height="150" rx="12" stroke="none"/>
          <rect x="0.5" y="0.5" width="249" height="149" rx="11.5" fill="none"/>
        </g>
      </g>
      <g id="Bank_Central_Asia" transform="translate(460.275 156)">
        <path id="path20" d="M68.493,131.043c0-2.391.026-8.783-.033-9.571.051-9.511-6.864-16.221-11.233-15.7-3.023.262-5.557,1.5-6.917,5.041-1.261,3.3-.134,7.7,4.058,8.732,4.483,1.108,7.1,2.03,8.994,3.33a10.24,10.24,0,0,1,4.266,8.169" transform="translate(-40.284 -85.501)" fill="#0060af"/>
        <path id="path22" d="M30,60A56.227,56.227,0,0,1,5.86,54.2l-.2-.1-.1-.2A57.2,57.2,0,0,1,0,29.591,55.418,55.418,0,0,1,5.489,5.661l.1-.2.2-.1A55.613,55.613,0,0,1,29.793,0,57.165,57.165,0,0,1,54.026,5.807l.206.091.095.208a57.249,57.249,0,0,1,5.667,24.315A55.51,55.51,0,0,1,54.4,54.35l-.1.206-.207.1A56.652,56.652,0,0,1,30,60M6.61,53.149A54.862,54.862,0,0,0,30,58.728,55.39,55.39,0,0,0,53.352,53.6a54.187,54.187,0,0,0,5.374-23.174A55.9,55.9,0,0,0,53.27,6.857,55.871,55.871,0,0,0,29.793,1.269,54.328,54.328,0,0,0,6.542,6.411,54.177,54.177,0,0,0,1.271,29.591,55.944,55.944,0,0,0,6.61,53.149" transform="translate(0 0)" fill="#0060af"/>
        <path id="path24" d="M64.779,185.063a8.736,8.736,0,0,0-3.932-7.233c-1.984-1.287-4.646-2.133-8.942-3.223a4.816,4.816,0,0,1-3.147-2.056c-1.138,1.146-1.344,3.723-1.144,5.229a5.994,5.994,0,0,0,5.336,4.728,24.166,24.166,0,0,0,5.376-.644c1.959-.423,5.058.8,5.551,3.2" transform="translate(-38.443 -139.517)" fill="#0060af"/>
        <path id="path26" d="M114.761,28.466c-5.2,0-9.69,3.429-9.674,9.362.016,4.989,4.029,7.66,5.461,9.568,2.164,2.875,3.335,6.278,3.456,11.485.095,4.144.09,8.236.111,9.686h1.148c-.02-1.517-.072-5.861-.012-9.814.078-5.208,1.291-8.481,3.456-11.356,1.444-1.908,5.453-4.579,5.462-9.568.019-5.933-4.469-9.362-9.664-9.362" transform="translate(-84.968 -23.016)" fill="#0060af"/>
        <path id="path28" d="M162.486,131.043c0-2.391-.027-8.783.031-9.571-.051-9.511,6.86-16.221,11.233-15.7,3.023.262,5.554,1.5,6.918,5.041,1.26,3.3.126,7.7-4.061,8.732-4.485,1.108-7.1,2.03-9,3.33a10.156,10.156,0,0,0-4.135,8.169" transform="translate(-131.374 -85.501)" fill="#0060af"/>
        <path id="path30" d="M172.292,185.063a8.74,8.74,0,0,1,3.924-7.233c1.992-1.287,4.658-2.133,8.95-3.223a4.775,4.775,0,0,0,3.141-2.056c1.143,1.146,1.349,3.723,1.149,5.229a6,6,0,0,1-5.33,4.728,24.2,24.2,0,0,1-5.383-.644c-1.951-.423-5.059.8-5.554,3.2" transform="translate(-139.307 -139.517)" fill="#0060af"/>
        <path id="path32" d="M177.859,267.99l-.665-4.855,1.606-.243a1.225,1.225,0,0,1,1.057.26,1.36,1.36,0,0,1,.315.8,1.045,1.045,0,0,1-.527,1.134v.015c.522,0,.837.375.929,1.008a3.112,3.112,0,0,1,.014.726c-.106.641-.488.847-1.134.937Zm1.034-.869a1.334,1.334,0,0,0,.534-.134c.231-.151.21-.474.178-.713-.081-.527-.218-.727-.777-.644l-.351.054.222,1.464Zm-.336-2.243c.213-.034.5-.06.621-.262a.712.712,0,0,0,.09-.541c-.065-.355-.183-.576-.635-.49l-.42.068.166,1.244" transform="translate(-143.271 -212.548)" fill="#0060af"/>
        <path id="path34" d="M203.244,261.784c.012.09.027.191.032.281.13.885-.032,1.618-1.028,1.82-1.471.284-1.753-.631-2.012-1.91l-.138-.692c-.2-1.225-.29-2.152,1.145-2.437a1.226,1.226,0,0,1,1.565.979,2.579,2.579,0,0,1,.094.36l-.88.182c-.1-.3-.236-.843-.632-.8-.711.085-.476.97-.4,1.339l.265,1.329c.079.4.237,1.044.852.92.5-.1.282-.878.237-1.2" transform="translate(-161.699 -209.262)" fill="#0060af"/>
        <path id="path36" d="M223.1,259.274l-.3-5.024,1.182-.361,2.479,4.37-.931.279-.587-1.11-1.034.31.134,1.262Zm.718-2.348.747-.216-.992-2.033" transform="translate(-180.14 -205.283)" fill="#0060af"/>
        <path id="path38" d="M70.082,254.733c.37-1.185.7-2.057,2.113-1.669.756.211,1.224.544,1.2,1.422a3.118,3.118,0,0,1-.11.587l-.879-.243c.115-.485.188-.869-.409-1.053-.69-.189-.858.647-.954,1.009l-.358,1.317c-.114.391-.25,1.037.358,1.2.5.135.806-.358.988-1.077l-.615-.163.213-.762,1.446.465-.686,2.538-.665-.181.15-.537h-.019a.923.923,0,0,1-1.007.422c-1.446-.391-1.295-1.336-.95-2.6" transform="translate(-56.329 -204.54)" fill="#0060af"/>
        <path id="path40" d="M93.967,260.836l-.435,2.065-.98-.212,1.044-4.822,1.671.378c.978.211,1.273.646,1.135,1.543-.079.514-.333,1.069-.952,1.024l-.006-.008c.524.183.568.447.477.9-.039.194-.312,1.373-.124,1.563l.007.144-1.014-.265a5.306,5.306,0,0,1,.158-1.239c.057-.288.149-.693-.143-.846a1.764,1.764,0,0,0-.572-.175Zm.167-.747.66.178c.4.058.624-.15.7-.634.071-.444-.021-.618-.381-.7l-.708-.143" transform="translate(-74.833 -208.5)" fill="#0060af"/>
        <path id="path42" d="M121.484,262.353l.969.113-.418,3.39c-.2,1.075-.618,1.545-1.8,1.4-1.2-.152-1.489-.7-1.416-1.783l.42-3.387.977.112-.419,3.311c-.044.36-.128.893.512.957.567.043.7-.333.76-.8" transform="translate(-96.063 -211.908)" fill="#0060af"/>
        <path id="path44" d="M143.428,269.587l.292-4.848,1.862.081c.88.043,1.111.762,1.083,1.448a1.453,1.453,0,0,1-.519,1.135,1.629,1.629,0,0,1-1.036.248l-.607-.034-.121,2.032Zm1.1-2.708.493.028c.4.015.666-.144.7-.732.019-.565-.194-.661-.713-.684l-.391-.013" transform="translate(-115.969 -214.055)" fill="#0060af"/>
        <path id="path46" d="M628.072,30.2l-7.4,13.435a16.322,16.322,0,0,0-10.558-3.938c-10.3,0-14.485,7.678-14.485,13.087,0,4.015,2.629,9.938,11.794,9.938,3.847,0,9.316-2.676,10.89-3.894l-7.321,15.586c-3.49.7-4.636,1.128-7.589,1.219-16.4.49-23.033-9.588-23.028-19.885.011-13.613,12.114-30.168,32.177-30.168a12.7,12.7,0,0,1,4.019.9l1.3-1.662" transform="translate(-469.263 -20.06)" fill="#0060af"/>
        <path id="path48" d="M800.831,27.011l2.1,48.829h-15.6l-.009-8.374H776.683l-3.5,8.374H756.265l17.686-34.868-3.988-.026,7.578-13.935ZM787.218,41.948l-6.014,14.2h6.2" transform="translate(-611.481 -21.839)" fill="#0060af"/>
        <path id="path50" d="M388.458,26.929c7.725.043,12.09,4.236,12.09,10.294,0,5.584-4.6,10.527-9.657,13.082,5.2,1.913,5.653,6.608,5.653,9.93,0,8.025-8.053,15.524-18.52,15.524H355.2l8.9-34.382-3.658-.021,7.477-14.426s14.256-.043,20.538,0m-7.579,19.8c1.6,0,4.419-.4,5.125-3.5.773-3.357-1.875-3.447-3.145-3.447l-4.538-.02-1.583,6.964Zm-6.416,8.629-2.089,8.025h5.344c2.1,0,4.968-1.043,5.67-3.655a3.4,3.4,0,0,0-3.4-4.37" transform="translate(-287.195 -21.758)" fill="#0060af"/>
      </g>
    </g>
    <g id="Group_163" data-name="Group 163" transform="translate(112 -81)">
      <g transform="matrix(1, 0, 0, 1, -112, 81)" filter="url(#Rectangle_594)">
        <g id="Rectangle_594-2" data-name="Rectangle 594" transform="translate(350 30)" fill="#fff" stroke="rgba(71,75,99,0.2)" stroke-width="1">
          <rect width="250" height="150" rx="12" stroke="none"/>
          <rect x="0.5" y="0.5" width="249" height="149" rx="11.5" fill="none"/>
        </g>
      </g>
      <g id="layer3" transform="translate(260.375 156)">
        <path id="path3242" d="M2.64,22.756,19.955,44.6,2.64,58.947V22.756Z" transform="translate(-2.64 -1.884)" fill="#f15a23" fill-rule="evenodd"/>
        <path id="path3244" d="M8.441,54.708l13.029-10.9,9.005,10.9Z" transform="translate(-1.472 2.354)" fill="#f15a23" fill-rule="evenodd"/>
        <path id="path3248" d="M2.64,14.559l4.519,5.716L25.737,43.491l6.02-4.794A74.636,74.636,0,0,1,23.4,26.247c-6.561-12.837-1.916-20.83-1.916-20.83H2.64Z" transform="translate(-2.64 -5.375)" fill="#f15a23" fill-rule="evenodd"/>
        <path id="path3250" d="M24.071,40.942,30.2,35.878s5.856,7.708,12.646,9.528c8.9,2.384,12.837-3.449,12.837-3.449V56.305H36.142l4.407-3.81s-2.3,1.533-7.923-2.362C29.307,47.834,24.071,40.942,24.071,40.942Z" transform="translate(1.675 0.758)" fill="#f15a23" fill-rule="evenodd"/>
        <path id="path3262" d="M24.718,5.382s-1.956,2.665-.564,9.184c1.488,6.968,7.407,14.344,7.393,14.179,0,0,.381-7.323,4.678-11.621a16.988,16.988,0,0,1,19.543-3.707V5.424Z" transform="translate(1.591 -5.382)" fill="#f15a23" fill-rule="evenodd"/>
        <path id="path3298" d="M53.871,20.94s-5.793-4.962-10.829-4.962a9.966,9.966,0,0,0-9.959,9.6c0,5.877,2.821,9.143,5.652,11.974,4.069,4.069,9.019,8.457,15.136,4.925Z" transform="translate(3.489 -3.249)" fill="#f15a23" fill-rule="evenodd"/>
        <path id="path3249" d="M105.3,5.88h13.67s12.111,18.336,18.062,25.912S149.393,48,149.393,48V9.986c0-1.642-4.31-4.106-4.31-4.106h15.764S155.674,8,155.674,9.986v55.3a43.917,43.917,0,0,1-10.592-9.292c-6.323-7.348-28.817-37.014-28.817-37.014V57.4c0,1.968,4.31,4.944,4.31,4.944H105.3s4.188-3,4.188-4.944V9.986C109.492,8.241,105.3,5.88,105.3,5.88Z" transform="translate(18.029 -5.282)" fill="#005e6a" fill-rule="evenodd"/>
        <path id="path3267" d="M158.887,5.88h17.545s-4.712,2.232-4.712,4.106V57.4c0,2.049,4.712,4.944,4.712,4.944H158.887s4.387-2.962,4.387-4.944V9.986C163.274,8.184,158.887,5.88,158.887,5.88Z" transform="translate(28.817 -5.282)" fill="#005e6a" fill-rule="evenodd"/>
        <path id="path3283" d="M62.337,5.88s4.549,2.268,4.549,4.106V57.4c0,2.015-4.549,4.944-4.549,4.944H88.329c1.625,0,19.819-2.975,19.819-17S94.014,30,94.014,30a12.341,12.341,0,0,0,8.61-11.991c0-10.345-12.671-12.131-14.3-12.131ZM76.145,29.072V11.42H86.7c1.624,0,7.31,1.9,7.31,8.934,0,5.8-5.686,8.719-7.31,8.719Zm0,4.63H88.329c1.625,0,11.209,2.49,11.209,10.805,0,8.478-9.585,11.483-11.209,11.483H76.145Z" transform="translate(9.379 -5.282)" fill="#005e6a" fill-rule="evenodd"/>
      </g>
    </g>
    <g id="Group_166" data-name="Group 166" transform="translate(414 62)">
      <g transform="matrix(1, 0, 0, 1, -414, -62)" filter="url(#Rectangle_597)">
        <g id="Rectangle_597-2" data-name="Rectangle 597" transform="translate(500 289)" fill="#fff" stroke="rgba(71,75,99,0.2)" stroke-width="1">
          <rect width="250" height="150" rx="12" stroke="none"/>
          <rect x="0.5" y="0.5" width="249" height="149" rx="11.5" fill="none"/>
        </g>
      </g>
      <g id="layer1" transform="translate(110.999 278.457)">
        <g id="g196" transform="translate(54.115 11.818)">
          <g id="Group_160" data-name="Group 160" transform="translate(0 0)">
            <g id="g204">
              <path id="path206" d="M0,0H10.778C15.143,0,18.4,1.913,18.4,5.942c0,2.954-1.51,4.6-4.129,5.472v.067C17.391,12.121,19,13.8,19,16.653c0,5.607-4.937,6.782-9.133,6.782H0ZM6.244,9.268H7.99c2.048,0,4.165-.5,4.165-2.486,0-2.147-2.016-2.349-4.1-2.349H6.244V9.268Zm0,9.736H8.091c2.284,0,4.667-.337,4.667-2.72,0-2.552-2.45-2.786-4.6-2.786H6.244Z" fill="#00529c"/>
            </g>
          </g>
        </g>
        <g id="g208" transform="translate(72.416 11.817)">
          <path id="path210" d="M3.292,0h7.655l9.032,23.435H13.129l-1.746-5h-8.8l-1.847,5H-5.605ZM7.119,4.835H7.052L4.03,14H9.907L7.119,4.835Z" transform="translate(5.605)" fill="#00529c"/>
        </g>
        <g id="g212" transform="translate(98.868 11.817)">
          <path id="path214" d="M0,0H7.956l7.925,15.915h.065L15.847,0h5.708V23.435H13.8L5.607,7.419H5.542l.2,16.016H0Z" transform="translate(0)" fill="#00529c"/>
        </g>
        <g id="g216" transform="translate(122.543 11.817)">
          <path id="path218" d="M0,0H6.244V9.569h.067L13.361,0h7.52L12.22,10.911l9.333,12.524H13.6L6.312,12.792H6.244V23.435H0Z" fill="#00529c"/>
        </g>
        <g id="g220" transform="translate(151.84 11.818)">
          <g id="Group_161" data-name="Group 161" transform="translate(0 0)">
            <g id="g228">
              <path id="path230" d="M0,0H10.778C15.141,0,18.4,1.913,18.4,5.942c0,2.954-1.51,4.6-4.129,5.472v.067C17.393,12.121,19,13.8,19,16.653c0,5.607-4.935,6.782-9.131,6.782H0ZM6.244,9.268H7.99c2.05,0,4.163-.5,4.163-2.486,0-2.147-2.012-2.349-4.1-2.349H6.244V9.268Zm0,9.736H8.091c2.282,0,4.667-.337,4.667-2.72,0-2.552-2.45-2.786-4.6-2.786H6.244V19Z" fill="#00529c"/>
            </g>
            <g id="g232" transform="translate(20.387)">
              <path id="path234" d="M0,0H11.147C15.31,0,18.7,1.881,18.7,5.911c0,3.121-1.476,5.2-4.5,5.907v.067c2.012.538,2.147,2.317,3.323,5.171l2.282,6.379H13.3l-1.343-4.228c-1.276-4.03-2.083-5.04-4.4-5.04H6.244v9.268H0ZM6.244,9.736H7.889c2.016,0,4.567-.067,4.567-2.72,0-2.181-2.183-2.583-4.567-2.583H6.244v5.3Z" transform="translate(0)" fill="#00529c"/>
            </g>
          </g>
        </g>
        <path id="path236" d="M-495.245,16.2H-489V39.637h-6.244Z" transform="translate(689.001 -4.386)" fill="#00529c"/>
        <g id="g246">
          <path id="path248" d="M14.75,0H-17.93a7.274,7.274,0,0,0-7.185,7.361V39.726a7.277,7.277,0,0,0,7.073,7.359H14.732a7.274,7.274,0,0,0,7.186-7.359l.014-32.365A7.273,7.273,0,0,0,14.75,0m-28.8,43.313-1.782.02a3.936,3.936,0,0,1-3.909-3.962l-.01-.312V9.171l.012-1.611a3.85,3.85,0,0,1,3.8-3.819h3.625A6.136,6.136,0,0,1-6.367,9.964a6.153,6.153,0,0,1-1.71,4.278l-9.248,9.385,8.669,8.827a6.185,6.185,0,0,1,1.792,4.321c0,3.611-3.214,6.538-7.183,6.538m26.649-.03-16.161-.006s1.867-4.038,1.867-6.538a11.491,11.491,0,0,0-2.613-7.573l-5.528-5.635L-4.192,17.7a10.5,10.5,0,0,0,2.8-7.571A11.281,11.281,0,0,0-3.22,3.74H.694a6.138,6.138,0,0,1,5.95,6.224,6.153,6.153,0,0,1-1.71,4.278L-4.137,23.53,14.7,42.742a3.983,3.983,0,0,1-2.1.542m3.946-6L3.046,23.524l6.431-6.536a11.12,11.12,0,0,0,2.139-6.857A11.42,11.42,0,0,0,9.772,3.667l2.877.087a3.936,3.936,0,0,1,3.909,3.962l-.01,29.569Z" transform="translate(25.115)" fill="#00529c"/>
        </g>
      </g>
    </g>
    <g id="Group_165" data-name="Group 165" transform="translate(-407 184)">
      <g transform="matrix(1, 0, 0, 1, 407, -184)" filter="url(#Rectangle_596)">
        <g id="Rectangle_596-2" data-name="Rectangle 596" transform="translate(200 289)" fill="#fff" stroke="rgba(71,75,99,0.2)" stroke-width="1">
          <rect width="250" height="150" rx="12" stroke="none"/>
          <rect x="0.5" y="0.5" width="249" height="149" rx="11.5" fill="none"/>
        </g>
      </g>
      <g id="Layer_x0020_1" transform="translate(640.953 160.823)">
        <path id="Path_1260" data-name="Path 1260" d="M19.867,0C30.84,0,39.734,8.584,39.734,19.173S30.84,38.346,19.867,38.346,0,29.762,0,19.173,8.895,0,19.867,0Z" fill="#00aed6"/>
        <path id="Path_1261" data-name="Path 1261" d="M172.12,167.981a4.577,4.577,0,0,0-4.834-4.2H154.737a.8.8,0,1,1,0-1.6h12.715a3.85,3.85,0,0,0-2.9-3.515,32.984,32.984,0,0,0-11.208,0,5.166,5.166,0,0,0-3.974,4.266,37.232,37.232,0,0,0,0,11.344,5.477,5.477,0,0,0,4.536,4.266,57.341,57.341,0,0,0,13.841,0,4.734,4.734,0,0,0,3.841-4.026A29.322,29.322,0,0,0,172.12,167.981Zm-4.139,2.684h0v.7a.828.828,0,0,1-1.655,0v-.7a1.149,1.149,0,0,1-.414-.894,1.242,1.242,0,1,1,2.07.894Z" transform="translate(-140.664 -149.4)" fill="#fff" fill-rule="evenodd"/>
        <path id="Path_1262" data-name="Path 1262" d="M1415.292,114.8a6.312,6.312,0,1,0-6.357,6.039h.1a5.918,5.918,0,0,0,6.306-5.466,5.613,5.613,0,0,0,0-.573Zm-18.741,0h0c0-6.391,5.232-11.264,12.483-11.264s12.483,4.905,12.483,11.264-5.182,11.28-12.483,11.28S1396.55,121.179,1396.55,114.8Z" transform="translate(-1318.969 -97.788)"/>
        <path id="Path_1263" data-name="Path 1263" d="M900.226,115.654c0,2.636-2.781,4.794-6.307,4.794a5.844,5.844,0,0,1-6.457-5.087,5.452,5.452,0,0,1-.017-.952c0-3.483,2.649-5.88,6.722-5.88,3.311,0,6.059,2.189,6.059,4.665Zm.249-12.446h0v2.525a10.308,10.308,0,0,0-7.4-2.509,11.232,11.232,0,1,0,.215,22.448,9.7,9.7,0,0,0,7.1-2.636v2.157c0,2.924-2.615,5.065-6.059,5.065a9.712,9.712,0,0,1-7.152-2.429l-4.023,3.739a15.725,15.725,0,0,0,11.341,4.25c7.053,0,11.887-4.57,11.887-10.657V103.208Z" transform="translate(-832.579 -97.472)"/>
        <path id="Path_1264" data-name="Path 1264" d="M1911.54,104.564h5.927v1.885h.083a10.151,10.151,0,0,1,7.136-2.492,11.272,11.272,0,0,1,0,22.544,10.946,10.946,0,0,1-6.921-2.253v10.673h-6.175Zm12.185,4.665h0c-3.312,0-6.01,2.221-6.01,4.633v2.7c0,2.573,2.666,4.7,6.043,4.7a6.028,6.028,0,1,0,.642-12.031q-.321-.016-.642,0Z" transform="translate(-1805.351 -98.173)"/>
        <path id="Path_1265" data-name="Path 1265" d="M2393.91,113.017c4.056-.528,5.265-1.087,5.265-2.173,0-1.406-1.54-2.253-3.924-2.253a5.214,5.214,0,0,0-5.513,3.85l-5.828-1.166c.828-4.346,5.463-7.446,11.175-7.446,6.457,0,10.464,3.2,10.464,8.372v13.565H2400V123.4h-.083a9.305,9.305,0,0,1-7.467,2.94c-4.884,0-8.278-2.572-8.278-6.391S2386.957,113.944,2393.91,113.017Zm5.762,2.253h-.083c-.546.767-1.656,1.214-4.718,1.725-3.626.655-4.967,1.342-4.967,2.588s1.076,1.854,3.41,1.854c3.56,0,6.308-1.6,6.308-3.627Z" transform="translate(-2251.48 -98.062)"/>
        <path id="Path_1266" data-name="Path 1266" d="M2800.935,135.165,2790.72,115.05h6.8l6.705,13.932h.1l6.623-13.932h6.838l-15.3,30.357h-6.8Z" transform="translate(-2635.691 -108.659)"/>
      </g>
    </g>
    <text id="OVO" transform="translate(175 212)" fill="#474b63" font-size="21" font-family="Roboto-Bold, Roboto" font-weight="700"><tspan x="-21.185" y="0">OVO</tspan></text>
    <text id="_08123456789012_A_n_ARTCA" data-name="08123456789012 A/n ARTCA" transform="translate(175 235)" fill="#474b63" font-size="16" font-family="Roboto-Regular, Roboto"><tspan x="-104.813" y="0">08123456789012 A/n ARTCA</tspan></text>
    <text id="Bank_BNI" data-name="Bank BNI" transform="translate(475 212)" fill="#474b63" font-size="21" font-family="Roboto-Bold, Roboto" font-weight="700"><tspan x="-43.61" y="0">Bank BNI</tspan></text>
    <text id="tf_ke_rek_64102385_A_n_ARTCA" data-name="tf ke rek 64102385
A/n ARTCA" transform="translate(475 235)" fill="#474b63" font-size="16" font-family="Roboto-Regular, Roboto"><tspan x="-66.563" y="0">tf ke rek 64102385</tspan><tspan x="-39.941" y="16">A/n ARTCA</tspan></text>
    <text id="Bank_BCA" data-name="Bank BCA" transform="translate(775 212)" fill="#474b63" font-size="21" font-family="Roboto-Bold, Roboto" font-weight="700"><tspan x="-47.071" y="0">Bank BCA</tspan></text>
    <text id="tf_ke_rek_84120841_A_n_ARTCA" data-name="tf ke rek 84120841
A/n ARTCA" transform="translate(775 235)" fill="#474b63" font-size="16" font-family="Roboto-Regular, Roboto"><tspan x="-66.563" y="0">tf ke rek 84120841</tspan><tspan x="-39.941" y="16">A/n ARTCA</tspan></text>
    <text id="GOPAY" transform="translate(325 471)" fill="#474b63" font-size="21" font-family="Roboto-Bold, Roboto" font-weight="700"><tspan x="-33.048" y="0">GOPAY</tspan></text>
    <text id="_08123456789012_A_n_ARTCA-2" data-name="08123456789012 A/n ARTCA" transform="translate(325 494)" fill="#474b63" font-size="16" font-family="Roboto-Regular, Roboto"><tspan x="-104.813" y="0">08123456789012 A/n ARTCA</tspan></text>
    <text id="Bank_BRI" data-name="Bank BRI" transform="translate(625 471)" fill="#474b63" font-size="21" font-family="Roboto-Bold, Roboto" font-weight="700"><tspan x="-42.897" y="0">Bank BRI</tspan></text>
    <text id="tf_ke_rek_32490128_A_n_ARTCA" data-name="tf ke rek 32490128
A/n ARTCA" transform="translate(625 494)" fill="#474b63" font-size="16" font-family="Roboto-Regular, Roboto"><tspan x="-66.563" y="0">tf ke rek 32490128</tspan><tspan x="-39.941" y="16">A/n ARTCA</tspan></text>
  </g>
</svg>
